<svg width="42" height="16" viewBox="0 0 42 16" fill="none" xmlns="http://www.w3.org/2000/svg">
<path d="M24.0078 10.835C24.0078 10.8688 23.9993 10.8984 23.9824 10.9238C23.9655 10.9492 23.9359 10.9704 23.8936 10.9873C23.8512 11 23.7941 11.0106 23.7222 11.019C23.6545 11.0317 23.5698 11.0381 23.4683 11.0381C23.3582 11.0381 23.2694 11.0317 23.2017 11.019C23.134 11.0106 23.0789 11 23.0366 10.9873C22.9943 10.9704 22.9647 10.9492 22.9478 10.9238C22.9308 10.8984 22.9224 10.8688 22.9224 10.835V7.19141H19.1836V10.835C19.1836 10.8688 19.1751 10.8984 19.1582 10.9238C19.1413 10.9492 19.1117 10.9704 19.0693 10.9873C19.027 11 18.9699 11.0106 18.8979 11.019C18.8302 11.0317 18.7435 11.0381 18.6377 11.0381C18.5361 11.0381 18.4494 11.0317 18.3774 11.019C18.3055 11.0106 18.2484 11 18.2061 10.9873C18.1637 10.9704 18.1341 10.9492 18.1172 10.9238C18.1003 10.8984 18.0918 10.8688 18.0918 10.835V2.95117C18.0918 2.91732 18.1003 2.8877 18.1172 2.8623C18.1341 2.83691 18.1637 2.81787 18.2061 2.80518C18.2484 2.78825 18.3055 2.77555 18.3774 2.76709C18.4494 2.75439 18.5361 2.74805 18.6377 2.74805C18.7435 2.74805 18.8302 2.75439 18.8979 2.76709C18.9699 2.77555 19.027 2.78825 19.0693 2.80518C19.1117 2.81787 19.1413 2.83691 19.1582 2.8623C19.1751 2.8877 19.1836 2.91732 19.1836 2.95117V6.23926H22.9224V2.95117C22.9224 2.91732 22.9308 2.8877 22.9478 2.8623C22.9647 2.83691 22.9943 2.81787 23.0366 2.80518C23.0789 2.78825 23.134 2.77555 23.2017 2.76709C23.2694 2.75439 23.3582 2.74805 23.4683 2.74805C23.5698 2.74805 23.6545 2.75439 23.7222 2.76709C23.7941 2.77555 23.8512 2.78825 23.8936 2.80518C23.9359 2.81787 23.9655 2.83691 23.9824 2.8623C23.9993 2.8877 24.0078 2.91732 24.0078 2.95117V10.835ZM27.1182 10.8413C27.1182 10.8752 27.1097 10.9048 27.0928 10.9302C27.0758 10.9513 27.0483 10.9704 27.0103 10.9873C26.9722 11.0042 26.9193 11.0169 26.8516 11.0254C26.7839 11.0339 26.6971 11.0381 26.5913 11.0381C26.4897 11.0381 26.4051 11.0339 26.3374 11.0254C26.2697 11.0169 26.2147 11.0042 26.1724 10.9873C26.1343 10.9704 26.1068 10.9513 26.0898 10.9302C26.0771 10.9048 26.0708 10.8752 26.0708 10.8413V5.12842C26.0708 5.0988 26.0771 5.07129 26.0898 5.0459C26.1068 5.02051 26.1343 4.99935 26.1724 4.98242C26.2147 4.96549 26.2697 4.9528 26.3374 4.94434C26.4051 4.93587 26.4897 4.93164 26.5913 4.93164C26.6971 4.93164 26.7839 4.93587 26.8516 4.94434C26.9193 4.9528 26.9722 4.96549 27.0103 4.98242C27.0483 4.99935 27.0758 5.02051 27.0928 5.0459C27.1097 5.07129 27.1182 5.0988 27.1182 5.12842V10.8413ZM27.2388 3.19873C27.2388 3.44417 27.1922 3.61133 27.0991 3.7002C27.006 3.78906 26.8346 3.8335 26.585 3.8335C26.3395 3.8335 26.1702 3.79118 26.0771 3.70654C25.9883 3.61768 25.9438 3.45264 25.9438 3.21143C25.9438 2.96598 25.9904 2.79883 26.0835 2.70996C26.1766 2.62109 26.348 2.57666 26.5977 2.57666C26.8431 2.57666 27.0103 2.62109 27.0991 2.70996C27.1922 2.7946 27.2388 2.95752 27.2388 3.19873ZM33.9482 10.8413C33.9482 10.8752 33.9398 10.9048 33.9229 10.9302C33.9102 10.9556 33.8848 10.9767 33.8467 10.9937C33.8128 11.0063 33.7663 11.0169 33.707 11.0254C33.6478 11.0339 33.5758 11.0381 33.4912 11.0381C33.4023 11.0381 33.3283 11.0339 33.269 11.0254C33.2098 11.0169 33.1611 11.0063 33.123 10.9937C33.085 10.9767 33.0575 10.9556 33.0405 10.9302C33.0236 10.9048 33.0151 10.8752 33.0151 10.8413V10.0859C32.7147 10.4118 32.4015 10.6657 32.0757 10.8477C31.7541 11.0296 31.4007 11.1206 31.0156 11.1206C30.5967 11.1206 30.2391 11.0402 29.9429 10.8794C29.6466 10.7144 29.4054 10.4943 29.2192 10.2192C29.0373 9.93994 28.904 9.6141 28.8193 9.2417C28.7347 8.86507 28.6924 8.4694 28.6924 8.05469C28.6924 7.5638 28.7453 7.12158 28.8511 6.72803C28.9569 6.33024 29.1134 5.9917 29.3208 5.7124C29.5282 5.43311 29.7842 5.2194 30.0889 5.07129C30.3978 4.91895 30.7533 4.84277 31.1553 4.84277C31.4896 4.84277 31.7943 4.91683 32.0693 5.06494C32.3486 5.20882 32.6237 5.42253 32.8945 5.70605V2.38623C32.8945 2.35661 32.9009 2.3291 32.9136 2.30371C32.9305 2.27409 32.9601 2.25293 33.0024 2.24023C33.0448 2.22331 33.0977 2.21061 33.1611 2.20215C33.2288 2.18945 33.3135 2.18311 33.415 2.18311C33.5208 2.18311 33.6076 2.18945 33.6753 2.20215C33.743 2.21061 33.7959 2.22331 33.834 2.24023C33.8721 2.25293 33.8996 2.27409 33.9165 2.30371C33.9377 2.3291 33.9482 2.35661 33.9482 2.38623V10.8413ZM32.8945 6.82324C32.611 6.47201 32.3359 6.2054 32.0693 6.02344C31.807 5.83724 31.5319 5.74414 31.2441 5.74414C30.9775 5.74414 30.7511 5.80762 30.5649 5.93457C30.3787 6.06152 30.2264 6.22868 30.1079 6.43604C29.9937 6.64339 29.909 6.87826 29.854 7.14062C29.8032 7.40299 29.7778 7.6696 29.7778 7.94043C29.7778 8.22819 29.799 8.5096 29.8413 8.78467C29.8879 9.05973 29.9661 9.30518 30.0762 9.521C30.1862 9.73258 30.3322 9.90397 30.5142 10.0352C30.6961 10.1621 30.9246 10.2256 31.1997 10.2256C31.3394 10.2256 31.4727 10.2065 31.5996 10.1685C31.7308 10.1304 31.8641 10.0669 31.9995 9.97803C32.1349 9.88916 32.2767 9.7749 32.4248 9.63525C32.5729 9.49137 32.7295 9.31576 32.8945 9.1084V6.82324ZM40.7593 7.7373C40.7593 7.90234 40.717 8.02083 40.6323 8.09277C40.5519 8.16048 40.4588 8.19434 40.353 8.19434H36.6079C36.6079 8.51172 36.6396 8.79736 36.7031 9.05127C36.7666 9.30518 36.8724 9.52311 37.0205 9.70508C37.1686 9.88704 37.3612 10.0267 37.5981 10.124C37.8351 10.2214 38.125 10.27 38.4678 10.27C38.7386 10.27 38.9798 10.2489 39.1914 10.2065C39.403 10.16 39.585 10.1092 39.7373 10.0542C39.8939 9.99919 40.0208 9.95052 40.1182 9.9082C40.2197 9.86165 40.2959 9.83838 40.3467 9.83838C40.3763 9.83838 40.4017 9.84684 40.4229 9.86377C40.4482 9.87646 40.4673 9.89762 40.48 9.92725C40.4927 9.95687 40.5011 9.99919 40.5054 10.0542C40.5138 10.105 40.5181 10.1685 40.5181 10.2446C40.5181 10.2996 40.516 10.3483 40.5117 10.3906C40.5075 10.4287 40.5011 10.4647 40.4927 10.4985C40.4884 10.5282 40.4779 10.5557 40.4609 10.5811C40.4482 10.6064 40.4292 10.6318 40.4038 10.6572C40.3826 10.6784 40.3149 10.7165 40.2007 10.7715C40.0864 10.8223 39.9383 10.873 39.7563 10.9238C39.5744 10.9746 39.3628 11.019 39.1216 11.0571C38.8846 11.0994 38.6307 11.1206 38.3599 11.1206C37.8901 11.1206 37.4775 11.055 37.1221 10.9238C36.7708 10.7926 36.4746 10.598 36.2334 10.3398C35.9922 10.0817 35.8102 9.75798 35.6875 9.36865C35.5648 8.97933 35.5034 8.52653 35.5034 8.01025C35.5034 7.51937 35.5669 7.07926 35.6938 6.68994C35.8208 6.29639 36.0028 5.96419 36.2397 5.69336C36.481 5.41829 36.7708 5.20882 37.1094 5.06494C37.4479 4.91683 37.8267 4.84277 38.2456 4.84277C38.6942 4.84277 39.075 4.91471 39.3882 5.05859C39.7056 5.20247 39.9658 5.39714 40.1689 5.64258C40.3721 5.88379 40.5202 6.16943 40.6133 6.49951C40.7106 6.82536 40.7593 7.17448 40.7593 7.54688V7.7373ZM39.7056 7.42627C39.7183 6.87614 39.5955 6.4445 39.3374 6.13135C39.0835 5.8182 38.7048 5.66162 38.2012 5.66162C37.943 5.66162 37.7166 5.71029 37.522 5.80762C37.3273 5.90495 37.1644 6.03402 37.0332 6.19482C36.902 6.35563 36.8005 6.54395 36.7285 6.75977C36.6566 6.97135 36.6164 7.19352 36.6079 7.42627H39.7056Z" fill="#31A9C9"/>
<circle cx="7.5" cy="7.5" r="7" stroke="#31A9C9"/>
<path d="M10 10.6934L7.57354 8.26336L5.04372 10.6934" stroke="#31A9C9" stroke-width="1.1" stroke-linecap="round"/>
<path d="M10 6.69336L7.57354 4.26336L5.04372 6.69336" stroke="#31A9C9" stroke-width="1.1" stroke-linecap="round"/>
</svg>
