<svg width="46" height="16" viewBox="0 0 46 16" fill="none" xmlns="http://www.w3.org/2000/svg">
<path d="M22.5034 8.6958C22.5034 9.08089 22.4315 9.42367 22.2876 9.72412C22.1479 10.0246 21.9512 10.2806 21.6973 10.4922C21.4476 10.6995 21.1514 10.8561 20.8086 10.9619C20.4701 11.0677 20.104 11.1206 19.7104 11.1206C19.4354 11.1206 19.1794 11.0973 18.9424 11.0508C18.7096 11.0042 18.5002 10.9471 18.314 10.8794C18.132 10.8117 17.9775 10.7419 17.8506 10.6699C17.7279 10.598 17.6411 10.5366 17.5903 10.4858C17.5438 10.4351 17.5078 10.3716 17.4824 10.2954C17.4613 10.215 17.4507 10.1092 17.4507 9.97803C17.4507 9.88493 17.4549 9.80876 17.4634 9.74951C17.4718 9.68604 17.4845 9.63525 17.5015 9.59717C17.5184 9.55908 17.5396 9.53369 17.5649 9.521C17.5903 9.50407 17.62 9.49561 17.6538 9.49561C17.7131 9.49561 17.7956 9.53158 17.9014 9.60352C18.0114 9.67546 18.151 9.75374 18.3203 9.83838C18.4896 9.92301 18.6927 10.0034 18.9297 10.0796C19.1709 10.1515 19.4481 10.1875 19.7612 10.1875C19.9982 10.1875 20.214 10.1558 20.4087 10.0923C20.6076 10.0288 20.7769 9.93994 20.9165 9.82568C21.0604 9.70719 21.1704 9.56331 21.2466 9.39404C21.3228 9.22477 21.3608 9.03223 21.3608 8.81641C21.3608 8.58366 21.3079 8.38477 21.2021 8.21973C21.0964 8.05469 20.9567 7.91081 20.7832 7.78809C20.6097 7.66113 20.4108 7.54688 20.1865 7.44531C19.9665 7.33952 19.7401 7.23372 19.5073 7.12793C19.2746 7.0179 19.0482 6.8973 18.8281 6.76611C18.6081 6.63493 18.4113 6.48047 18.2378 6.30273C18.0643 6.125 17.9225 5.91764 17.8125 5.68066C17.7067 5.43945 17.6538 5.15169 17.6538 4.81738C17.6538 4.47461 17.7152 4.16992 17.8379 3.90332C17.9648 3.63249 18.1383 3.40609 18.3584 3.22412C18.5827 3.04215 18.8472 2.90462 19.1519 2.81152C19.4608 2.71419 19.793 2.66553 20.1484 2.66553C20.3304 2.66553 20.5124 2.68245 20.6943 2.71631C20.8805 2.74593 21.054 2.78825 21.2148 2.84326C21.3799 2.89404 21.5259 2.95329 21.6528 3.021C21.7798 3.08447 21.8623 3.13737 21.9004 3.17969C21.9427 3.21777 21.9702 3.24951 21.9829 3.2749C21.9956 3.29606 22.0062 3.32568 22.0146 3.36377C22.0231 3.39762 22.0295 3.43994 22.0337 3.49072C22.0379 3.5415 22.04 3.6071 22.04 3.6875C22.04 3.76367 22.0358 3.83138 22.0273 3.89062C22.0231 3.94987 22.0146 4.00065 22.002 4.04297C21.9893 4.08105 21.9702 4.11068 21.9448 4.13184C21.9237 4.14876 21.8983 4.15723 21.8687 4.15723C21.8221 4.15723 21.748 4.1276 21.6465 4.06836C21.5492 4.00911 21.4285 3.94352 21.2847 3.87158C21.1408 3.79541 20.9694 3.7277 20.7705 3.66846C20.5758 3.60498 20.3558 3.57324 20.1104 3.57324C19.8818 3.57324 19.6829 3.60498 19.5137 3.66846C19.3444 3.7277 19.2048 3.80811 19.0947 3.90967C18.9847 4.01123 18.9022 4.13184 18.8472 4.27148C18.7922 4.41113 18.7646 4.55924 18.7646 4.71582C18.7646 4.94434 18.8175 5.14111 18.9233 5.30615C19.0291 5.47119 19.1688 5.61719 19.3423 5.74414C19.52 5.87109 19.721 5.98747 19.9453 6.09326C20.1696 6.19906 20.3981 6.30697 20.6309 6.41699C20.8636 6.52279 21.0921 6.64128 21.3164 6.77246C21.5407 6.89941 21.7396 7.05176 21.9131 7.22949C22.0908 7.40299 22.2326 7.61035 22.3384 7.85156C22.4484 8.08854 22.5034 8.36995 22.5034 8.6958ZM28.8701 10.8413C28.8701 10.8752 28.8617 10.9048 28.8447 10.9302C28.8278 10.9513 28.8003 10.9704 28.7622 10.9873C28.7241 11.0042 28.6712 11.0169 28.6035 11.0254C28.5358 11.0339 28.4512 11.0381 28.3496 11.0381C28.2438 11.0381 28.1571 11.0339 28.0894 11.0254C28.0216 11.0169 27.9688 11.0042 27.9307 10.9873C27.8926 10.9704 27.8651 10.9513 27.8481 10.9302C27.8312 10.9048 27.8228 10.8752 27.8228 10.8413V7.49609C27.8228 7.17025 27.7974 6.90788 27.7466 6.70898C27.6958 6.51009 27.6217 6.3387 27.5244 6.19482C27.4271 6.05094 27.3001 5.94092 27.1436 5.86475C26.9912 5.78857 26.8135 5.75049 26.6104 5.75049C26.348 5.75049 26.0856 5.84359 25.8232 6.02979C25.5609 6.21598 25.2858 6.48893 24.998 6.84863V10.8413C24.998 10.8752 24.9896 10.9048 24.9727 10.9302C24.9557 10.9513 24.9282 10.9704 24.8901 10.9873C24.8521 11.0042 24.7992 11.0169 24.7314 11.0254C24.6637 11.0339 24.577 11.0381 24.4712 11.0381C24.3696 11.0381 24.285 11.0339 24.2173 11.0254C24.1496 11.0169 24.0946 11.0042 24.0522 10.9873C24.0142 10.9704 23.9867 10.9513 23.9697 10.9302C23.957 10.9048 23.9507 10.8752 23.9507 10.8413V2.36084C23.9507 2.32699 23.957 2.29736 23.9697 2.27197C23.9867 2.24658 24.0142 2.22542 24.0522 2.2085C24.0946 2.19157 24.1496 2.17887 24.2173 2.17041C24.285 2.16195 24.3696 2.15771 24.4712 2.15771C24.577 2.15771 24.6637 2.16195 24.7314 2.17041C24.7992 2.17887 24.8521 2.19157 24.8901 2.2085C24.9282 2.22542 24.9557 2.24658 24.9727 2.27197C24.9896 2.29736 24.998 2.32699 24.998 2.36084V5.78223C25.2985 5.46484 25.6011 5.22998 25.9058 5.07764C26.2104 4.92106 26.5173 4.84277 26.8262 4.84277C27.207 4.84277 27.5265 4.90837 27.7847 5.03955C28.047 5.1665 28.2586 5.33789 28.4194 5.55371C28.5802 5.76953 28.6945 6.02344 28.7622 6.31543C28.8341 6.60319 28.8701 6.95231 28.8701 7.36279V10.8413ZM36.0938 7.92139C36.0938 8.38688 36.0324 8.81641 35.9097 9.20996C35.7869 9.59928 35.6029 9.93571 35.3574 10.2192C35.1162 10.5028 34.8115 10.7249 34.4434 10.8857C34.0794 11.0423 33.6562 11.1206 33.1738 11.1206C32.7041 11.1206 32.2936 11.0508 31.9424 10.9111C31.5954 10.7715 31.3055 10.5684 31.0728 10.3018C30.84 10.0352 30.6665 9.71143 30.5522 9.33057C30.438 8.94971 30.3809 8.51807 30.3809 8.03564C30.3809 7.57015 30.4401 7.14274 30.5586 6.75342C30.6813 6.35986 30.8633 6.02132 31.1045 5.73779C31.3499 5.45426 31.6546 5.23421 32.0186 5.07764C32.3825 4.92106 32.8078 4.84277 33.2944 4.84277C33.7642 4.84277 34.1725 4.9126 34.5195 5.05225C34.8708 5.19189 35.1628 5.39502 35.3955 5.66162C35.6283 5.92822 35.8018 6.25195 35.916 6.63281C36.0345 7.01367 36.0938 7.4432 36.0938 7.92139ZM34.9893 7.99121C34.9893 7.68229 34.9596 7.3903 34.9004 7.11523C34.8454 6.84017 34.7523 6.59896 34.6211 6.3916C34.4899 6.18424 34.3122 6.02132 34.0879 5.90283C33.8636 5.78011 33.5843 5.71875 33.25 5.71875C32.9411 5.71875 32.6745 5.77376 32.4502 5.88379C32.2301 5.99382 32.0482 6.15039 31.9043 6.35352C31.7604 6.55241 31.6525 6.78939 31.5806 7.06445C31.5129 7.33952 31.479 7.63997 31.479 7.96582C31.479 8.27897 31.5065 8.57308 31.5615 8.84814C31.6208 9.12321 31.716 9.36442 31.8472 9.57178C31.9826 9.7749 32.1624 9.93783 32.3867 10.0605C32.611 10.179 32.8903 10.2383 33.2246 10.2383C33.5293 10.2383 33.7938 10.1833 34.0181 10.0732C34.2424 9.96322 34.4264 9.80876 34.5703 9.60986C34.7142 9.41097 34.82 9.17399 34.8877 8.89893C34.9554 8.62386 34.9893 8.32129 34.9893 7.99121ZM45.5771 5.11572C45.5771 5.14535 45.5729 5.18132 45.5645 5.22363C45.556 5.26595 45.5412 5.31885 45.52 5.38232L43.8379 10.8096C43.8252 10.8561 43.804 10.8942 43.7744 10.9238C43.749 10.9535 43.7109 10.9767 43.6602 10.9937C43.6136 11.0106 43.548 11.0212 43.4634 11.0254C43.3787 11.0339 43.2729 11.0381 43.146 11.0381C43.0148 11.0381 42.9048 11.0339 42.8159 11.0254C42.7271 11.0169 42.6551 11.0042 42.6001 10.9873C42.5493 10.9704 42.5112 10.9471 42.4858 10.9175C42.4604 10.8879 42.4414 10.8519 42.4287 10.8096L41.229 6.66455L41.2163 6.60742L41.2036 6.66455L40.0928 10.8096C40.0801 10.8561 40.0589 10.8942 40.0293 10.9238C40.0039 10.9535 39.9637 10.9767 39.9087 10.9937C39.8537 11.0106 39.7817 11.0212 39.6929 11.0254C39.6082 11.0339 39.5024 11.0381 39.3755 11.0381C39.2443 11.0381 39.1364 11.0339 39.0518 11.0254C38.9714 11.0169 38.9036 11.0042 38.8486 10.9873C38.7979 10.9704 38.7598 10.9471 38.7344 10.9175C38.709 10.8879 38.6899 10.8519 38.6772 10.8096L37.0078 5.38232C36.9867 5.31885 36.9718 5.26595 36.9634 5.22363C36.9549 5.18132 36.9507 5.14535 36.9507 5.11572C36.9507 5.07764 36.9591 5.04801 36.9761 5.02686C36.993 5.00146 37.0205 4.98242 37.0586 4.96973C37.1009 4.9528 37.1559 4.94222 37.2236 4.93799C37.2913 4.93376 37.3739 4.93164 37.4712 4.93164C37.5897 4.93164 37.6849 4.93587 37.7568 4.94434C37.8288 4.94857 37.8838 4.95915 37.9219 4.97607C37.96 4.98877 37.9875 5.00993 38.0044 5.03955C38.0213 5.06494 38.0361 5.09668 38.0488 5.13477L39.4263 9.84473L39.439 9.90186L39.4517 9.84473L40.7148 5.13477C40.7233 5.09668 40.736 5.06494 40.7529 5.03955C40.7741 5.00993 40.8037 4.98877 40.8418 4.97607C40.8799 4.95915 40.9307 4.94857 40.9941 4.94434C41.0618 4.93587 41.1486 4.93164 41.2544 4.93164C41.356 4.93164 41.4385 4.93587 41.502 4.94434C41.5697 4.94857 41.6226 4.95915 41.6606 4.97607C41.6987 4.98877 41.7262 5.00781 41.7432 5.0332C41.7601 5.05859 41.7728 5.08822 41.7812 5.12207L43.146 9.84473L43.1587 9.90186L43.165 9.84473L44.5234 5.13477C44.5319 5.09668 44.5446 5.06494 44.5615 5.03955C44.5827 5.00993 44.6123 4.98877 44.6504 4.97607C44.6927 4.95915 44.7477 4.94857 44.8154 4.94434C44.8874 4.93587 44.9784 4.93164 45.0884 4.93164C45.1899 4.93164 45.2703 4.93376 45.3296 4.93799C45.3931 4.94222 45.4417 4.9528 45.4756 4.96973C45.5137 4.98665 45.5391 5.0057 45.5518 5.02686C45.5687 5.04801 45.5771 5.07764 45.5771 5.11572Z" fill="#31A9C9"/>
<circle r="7" transform="matrix(-1 0 0 1 7.5 7.5)" stroke="#31A9C9"/>
<path d="M4.57031 5L7.00031 7.42646L4.57031 9.95628" stroke="#31A9C9" stroke-width="1.1" stroke-linecap="round"/>
<path d="M8.57031 5L11.0003 7.42646L8.57031 9.95628" stroke="#31A9C9" stroke-width="1.1" stroke-linecap="round"/>
</svg>
